<svg width="17" height="15" viewBox="0 0 17 15" fill="none" xmlns="http://www.w3.org/2000/svg">
<path fill-rule="evenodd" clip-rule="evenodd" d="M17 7.00029C17 7.2655 16.8946 7.51986 16.7071 7.70739C16.5196 7.89493 16.2652 8.00029 16 8.00029H4.414L8.708 12.2923C8.80098 12.3853 8.87473 12.4956 8.92505 12.6171C8.97536 12.7386 9.00126 12.8688 9.00126 13.0003C9.00126 13.1318 8.97536 13.262 8.92505 13.3835C8.87473 13.5049 8.80098 13.6153 8.708 13.7083C8.61502 13.8013 8.50465 13.875 8.38317 13.9253C8.26169 13.9757 8.13149 14.0015 8 14.0015C7.86851 14.0015 7.73831 13.9757 7.61683 13.9253C7.49535 13.875 7.38498 13.8013 7.292 13.7083L1.292 7.70829C1.19887 7.6154 1.12499 7.50504 1.07458 7.38355C1.02416 7.26206 0.998213 7.13182 0.998213 7.00029C0.998213 6.86875 1.02416 6.73851 1.07458 6.61702C1.12499 6.49553 1.19887 6.38518 1.292 6.29229L7.292 0.292287C7.38498 0.199311 7.49535 0.125558 7.61683 0.0752401C7.73831 0.0249219 7.86851 -0.000976562 8 -0.000976562C8.13149 -0.000976562 8.26169 0.0249219 8.38317 0.0752401C8.50465 0.125558 8.61502 0.199311 8.708 0.292287C8.89577 0.48006 9.00126 0.734736 9.00126 1.00029C9.00126 1.13177 8.97536 1.26198 8.92505 1.38345C8.87473 1.50493 8.80098 1.61531 8.708 1.70829L4.414 6.00029L16 6.00029C16.2652 6.00029 16.5196 6.10564 16.7071 6.29318C16.8946 6.48072 17 6.73507 17 7.00029Z" fill="white"/>
</svg>
