<svg width="16" height="16" viewBox="0 0 16 16" fill="none" xmlns="http://www.w3.org/2000/svg">
<path d="M1.29208 1.29183C1.38497 1.19871 1.49532 1.12482 1.61681 1.07441C1.7383 1.024 1.86854 0.998047 2.00008 0.998047C2.13161 0.998047 2.26186 1.024 2.38335 1.07441C2.50484 1.12482 2.61519 1.19871 2.70808 1.29183L8.00008 6.58583L13.2921 1.29183C13.3851 1.19886 13.4954 1.12511 13.6169 1.07479C13.7384 1.02447 13.8686 0.99857 14.0001 0.99857C14.1316 0.99857 14.2618 1.02447 14.3832 1.07479C14.5047 1.12511 14.6151 1.19886 14.7081 1.29183C14.8011 1.38481 14.8748 1.49519 14.9251 1.61667C14.9754 1.73815 15.0013 1.86835 15.0013 1.99983C15.0013 2.13132 14.9754 2.26152 14.9251 2.383C14.8748 2.50448 14.8011 2.61486 14.7081 2.70783L9.41408 7.99983L14.7081 13.2918C14.8011 13.3848 14.8748 13.4952 14.9251 13.6167C14.9754 13.7381 15.0013 13.8683 15.0013 13.9998C15.0013 14.1313 14.9754 14.2615 14.9251 14.383C14.8748 14.5045 14.8011 14.6149 14.7081 14.7078C14.6151 14.8008 14.5047 14.8746 14.3832 14.9249C14.2618 14.9752 14.1316 15.0011 14.0001 15.0011C13.8686 15.0011 13.7384 14.9752 13.6169 14.9249C13.4954 14.8746 13.3851 14.8008 13.2921 14.7078L8.00008 9.41383L2.70808 14.7078C2.6151 14.8008 2.50472 14.8746 2.38325 14.9249C2.26177 14.9752 2.13157 15.0011 2.00008 15.0011C1.86859 15.0011 1.73839 14.9752 1.61691 14.9249C1.49543 14.8746 1.38505 14.8008 1.29208 14.7078C1.1991 14.6149 1.12535 14.5045 1.07503 14.383C1.02471 14.2615 0.998815 14.1313 0.998815 13.9998C0.998815 13.8683 1.02471 13.7381 1.07503 13.6167C1.12535 13.4952 1.1991 13.3848 1.29208 13.2918L6.58608 7.99983L1.29208 2.70783C1.19895 2.61494 1.12507 2.50459 1.07465 2.3831C1.02424 2.26161 0.998291 2.13137 0.998291 1.99983C0.998291 1.8683 1.02424 1.73806 1.07465 1.61657C1.12507 1.49508 1.19895 1.38473 1.29208 1.29183Z" fill="#CED4DA"/>
</svg>
