<svg width="24" height="22" viewBox="0 0 24 22" fill="none" xmlns="http://www.w3.org/2000/svg">
<path fill-rule="evenodd" clip-rule="evenodd" d="M2.99997 19.2497V9.49973H4.49997V19.2497C4.49997 19.4486 4.57899 19.6394 4.71964 19.7801C4.86029 19.9207 5.05106 19.9997 5.24997 19.9997H18.75C18.9489 19.9997 19.1396 19.9207 19.2803 19.7801C19.421 19.6394 19.5 19.4486 19.5 19.2497V9.49973H21V19.2497C21 19.8465 20.7629 20.4188 20.341 20.8407C19.919 21.2627 19.3467 21.4997 18.75 21.4997H5.24997C4.65323 21.4997 4.08094 21.2627 3.65898 20.8407C3.23702 20.4188 2.99997 19.8465 2.99997 19.2497ZM19.5 2.74973V7.99973L16.5 4.99973V2.74973C16.5 2.55081 16.579 2.36005 16.7196 2.2194C16.8603 2.07874 17.0511 1.99973 17.25 1.99973H18.75C18.9489 1.99973 19.1396 2.07874 19.2803 2.2194C19.421 2.36005 19.5 2.55081 19.5 2.74973Z" fill="white"/>
<path fill-rule="evenodd" clip-rule="evenodd" d="M10.9395 1.24973C11.2208 0.96852 11.6022 0.810547 12 0.810547C12.3977 0.810547 12.7792 0.96852 13.0605 1.24973L23.031 11.2187C23.1718 11.3596 23.2509 11.5506 23.2509 11.7497C23.2509 11.9489 23.1718 12.1399 23.031 12.2807C22.8901 12.4216 22.6991 12.5007 22.5 12.5007C22.3008 12.5007 22.1098 12.4216 21.969 12.2807L12 2.31023L2.03097 12.2807C1.89014 12.4216 1.69913 12.5007 1.49997 12.5007C1.30081 12.5007 1.1098 12.4216 0.968971 12.2807C0.828141 12.1399 0.749023 11.9489 0.749023 11.7497C0.749023 11.5506 0.828141 11.3596 0.968971 11.2187L10.9395 1.24973Z" fill="white"/>
</svg>
