<svg width="118" height="8" viewBox="0 0 118 8" fill="none" xmlns="http://www.w3.org/2000/svg">
<path d="M0.44 3.86C0.44 4.35333 0.533333 4.82 0.72 5.26C0.906667 5.68667 1.16 6.06667 1.48 6.4C1.8 6.72 2.17333 6.97333 2.6 7.16C3.04 7.34667 3.50667 7.44 4 7.44C4.49333 7.44 4.95333 7.34667 5.38 7.16C5.82 6.97333 6.2 6.72 6.52 6.4C6.85333 6.06667 7.11333 5.68667 7.3 5.26C7.48667 4.82 7.58 4.35333 7.58 3.86C7.58 3.36667 7.48667 2.90667 7.3 2.48C7.11333 2.04 6.85333 1.66 6.52 1.34C6.2 1.02 5.82 0.766666 5.38 0.579999C4.95333 0.393333 4.49333 0.299999 4 0.299999C3.50667 0.299999 3.04 0.393333 2.6 0.579999C2.17333 0.766666 1.8 1.02 1.48 1.34C1.16 1.66 0.906667 2.04 0.72 2.48C0.533333 2.90667 0.44 3.36667 0.44 3.86ZM10.44 3.86C10.44 4.35333 10.5333 4.82 10.72 5.26C10.9067 5.68667 11.16 6.06667 11.48 6.4C11.8 6.72 12.1733 6.97333 12.6 7.16C13.04 7.34667 13.5067 7.44 14 7.44C14.4933 7.44 14.9533 7.34667 15.38 7.16C15.82 6.97333 16.2 6.72 16.52 6.4C16.8533 6.06667 17.1133 5.68667 17.3 5.26C17.4867 4.82 17.58 4.35333 17.58 3.86C17.58 3.36667 17.4867 2.90667 17.3 2.48C17.1133 2.04 16.8533 1.66 16.52 1.34C16.2 1.02 15.82 0.766666 15.38 0.579999C14.9533 0.393333 14.4933 0.299999 14 0.299999C13.5067 0.299999 13.04 0.393333 12.6 0.579999C12.1733 0.766666 11.8 1.02 11.48 1.34C11.16 1.66 10.9067 2.04 10.72 2.48C10.5333 2.90667 10.44 3.36667 10.44 3.86ZM20.44 3.86C20.44 4.35333 20.5333 4.82 20.72 5.26C20.9067 5.68667 21.16 6.06667 21.48 6.4C21.8 6.72 22.1733 6.97333 22.6 7.16C23.04 7.34667 23.5067 7.44 24 7.44C24.4933 7.44 24.9533 7.34667 25.38 7.16C25.82 6.97333 26.2 6.72 26.52 6.4C26.8533 6.06667 27.1133 5.68667 27.3 5.26C27.4867 4.82 27.58 4.35333 27.58 3.86C27.58 3.36667 27.4867 2.90667 27.3 2.48C27.1133 2.04 26.8533 1.66 26.52 1.34C26.2 1.02 25.82 0.766666 25.38 0.579999C24.9533 0.393333 24.4933 0.299999 24 0.299999C23.5067 0.299999 23.04 0.393333 22.6 0.579999C22.1733 0.766666 21.8 1.02 21.48 1.34C21.16 1.66 20.9067 2.04 20.72 2.48C20.5333 2.90667 20.44 3.36667 20.44 3.86ZM30.44 3.86C30.44 4.35333 30.5333 4.82 30.72 5.26C30.9067 5.68667 31.16 6.06667 31.48 6.4C31.8 6.72 32.1733 6.97333 32.6 7.16C33.04 7.34667 33.5067 7.44 34 7.44C34.4933 7.44 34.9533 7.34667 35.38 7.16C35.82 6.97333 36.2 6.72 36.52 6.4C36.8533 6.06667 37.1133 5.68667 37.3 5.26C37.4867 4.82 37.58 4.35333 37.58 3.86C37.58 3.36667 37.4867 2.90667 37.3 2.48C37.1133 2.04 36.8533 1.66 36.52 1.34C36.2 1.02 35.82 0.766666 35.38 0.579999C34.9533 0.393333 34.4933 0.299999 34 0.299999C33.5067 0.299999 33.04 0.393333 32.6 0.579999C32.1733 0.766666 31.8 1.02 31.48 1.34C31.16 1.66 30.9067 2.04 30.72 2.48C30.5333 2.90667 30.44 3.36667 30.44 3.86ZM40.44 3.86C40.44 4.35333 40.5333 4.82 40.72 5.26C40.9067 5.68667 41.16 6.06667 41.48 6.4C41.8 6.72 42.1733 6.97333 42.6 7.16C43.04 7.34667 43.5067 7.44 44 7.44C44.4933 7.44 44.9533 7.34667 45.38 7.16C45.82 6.97333 46.2 6.72 46.52 6.4C46.8533 6.06667 47.1133 5.68667 47.3 5.26C47.4867 4.82 47.58 4.35333 47.58 3.86C47.58 3.36667 47.4867 2.90667 47.3 2.48C47.1133 2.04 46.8533 1.66 46.52 1.34C46.2 1.02 45.82 0.766666 45.38 0.579999C44.9533 0.393333 44.4933 0.299999 44 0.299999C43.5067 0.299999 43.04 0.393333 42.6 0.579999C42.1733 0.766666 41.8 1.02 41.48 1.34C41.16 1.66 40.9067 2.04 40.72 2.48C40.5333 2.90667 40.44 3.36667 40.44 3.86ZM50.44 3.86C50.44 4.35333 50.5333 4.82 50.72 5.26C50.9067 5.68667 51.16 6.06667 51.48 6.4C51.8 6.72 52.1733 6.97333 52.6 7.16C53.04 7.34667 53.5067 7.44 54 7.44C54.4933 7.44 54.9533 7.34667 55.38 7.16C55.82 6.97333 56.2 6.72 56.52 6.4C56.8533 6.06667 57.1133 5.68667 57.3 5.26C57.4867 4.82 57.58 4.35333 57.58 3.86C57.58 3.36667 57.4867 2.90667 57.3 2.48C57.1133 2.04 56.8533 1.66 56.52 1.34C56.2 1.02 55.82 0.766666 55.38 0.579999C54.9533 0.393333 54.4933 0.299999 54 0.299999C53.5067 0.299999 53.04 0.393333 52.6 0.579999C52.1733 0.766666 51.8 1.02 51.48 1.34C51.16 1.66 50.9067 2.04 50.72 2.48C50.5333 2.90667 50.44 3.36667 50.44 3.86ZM60.44 3.86C60.44 4.35333 60.5333 4.82 60.72 5.26C60.9067 5.68667 61.16 6.06667 61.48 6.4C61.8 6.72 62.1733 6.97333 62.6 7.16C63.04 7.34667 63.5067 7.44 64 7.44C64.4933 7.44 64.9533 7.34667 65.38 7.16C65.82 6.97333 66.2 6.72 66.52 6.4C66.8533 6.06667 67.1133 5.68667 67.3 5.26C67.4867 4.82 67.58 4.35333 67.58 3.86C67.58 3.36667 67.4867 2.90667 67.3 2.48C67.1133 2.04 66.8533 1.66 66.52 1.34C66.2 1.02 65.82 0.766666 65.38 0.579999C64.9533 0.393333 64.4933 0.299999 64 0.299999C63.5067 0.299999 63.04 0.393333 62.6 0.579999C62.1733 0.766666 61.8 1.02 61.48 1.34C61.16 1.66 60.9067 2.04 60.72 2.48C60.5333 2.90667 60.44 3.36667 60.44 3.86ZM70.44 3.86C70.44 4.35333 70.5333 4.82 70.72 5.26C70.9067 5.68667 71.16 6.06667 71.48 6.4C71.8 6.72 72.1733 6.97333 72.6 7.16C73.04 7.34667 73.5067 7.44 74 7.44C74.4933 7.44 74.9533 7.34667 75.38 7.16C75.82 6.97333 76.2 6.72 76.52 6.4C76.8533 6.06667 77.1133 5.68667 77.3 5.26C77.4867 4.82 77.58 4.35333 77.58 3.86C77.58 3.36667 77.4867 2.90667 77.3 2.48C77.1133 2.04 76.8533 1.66 76.52 1.34C76.2 1.02 75.82 0.766666 75.38 0.579999C74.9533 0.393333 74.4933 0.299999 74 0.299999C73.5067 0.299999 73.04 0.393333 72.6 0.579999C72.1733 0.766666 71.8 1.02 71.48 1.34C71.16 1.66 70.9067 2.04 70.72 2.48C70.5333 2.90667 70.44 3.36667 70.44 3.86ZM80.44 3.86C80.44 4.35333 80.5333 4.82 80.72 5.26C80.9067 5.68667 81.16 6.06667 81.48 6.4C81.8 6.72 82.1733 6.97333 82.6 7.16C83.04 7.34667 83.5067 7.44 84 7.44C84.4933 7.44 84.9533 7.34667 85.38 7.16C85.82 6.97333 86.2 6.72 86.52 6.4C86.8533 6.06667 87.1133 5.68667 87.3 5.26C87.4867 4.82 87.58 4.35333 87.58 3.86C87.58 3.36667 87.4867 2.90667 87.3 2.48C87.1133 2.04 86.8533 1.66 86.52 1.34C86.2 1.02 85.82 0.766666 85.38 0.579999C84.9533 0.393333 84.4933 0.299999 84 0.299999C83.5067 0.299999 83.04 0.393333 82.6 0.579999C82.1733 0.766666 81.8 1.02 81.48 1.34C81.16 1.66 80.9067 2.04 80.72 2.48C80.5333 2.90667 80.44 3.36667 80.44 3.86ZM90.44 3.86C90.44 4.35333 90.5333 4.82 90.72 5.26C90.9067 5.68667 91.16 6.06667 91.48 6.4C91.8 6.72 92.1733 6.97333 92.6 7.16C93.04 7.34667 93.5067 7.44 94 7.44C94.4933 7.44 94.9533 7.34667 95.38 7.16C95.82 6.97333 96.2 6.72 96.52 6.4C96.8533 6.06667 97.1133 5.68667 97.3 5.26C97.4867 4.82 97.58 4.35333 97.58 3.86C97.58 3.36667 97.4867 2.90667 97.3 2.48C97.1133 2.04 96.8533 1.66 96.52 1.34C96.2 1.02 95.82 0.766666 95.38 0.579999C94.9533 0.393333 94.4933 0.299999 94 0.299999C93.5067 0.299999 93.04 0.393333 92.6 0.579999C92.1733 0.766666 91.8 1.02 91.48 1.34C91.16 1.66 90.9067 2.04 90.72 2.48C90.5333 2.90667 90.44 3.36667 90.44 3.86ZM100.44 3.86C100.44 4.35333 100.533 4.82 100.72 5.26C100.907 5.68667 101.16 6.06667 101.48 6.4C101.8 6.72 102.173 6.97333 102.6 7.16C103.04 7.34667 103.507 7.44 104 7.44C104.493 7.44 104.953 7.34667 105.38 7.16C105.82 6.97333 106.2 6.72 106.52 6.4C106.853 6.06667 107.113 5.68667 107.3 5.26C107.487 4.82 107.58 4.35333 107.58 3.86C107.58 3.36667 107.487 2.90667 107.3 2.48C107.113 2.04 106.853 1.66 106.52 1.34C106.2 1.02 105.82 0.766666 105.38 0.579999C104.953 0.393333 104.493 0.299999 104 0.299999C103.507 0.299999 103.04 0.393333 102.6 0.579999C102.173 0.766666 101.8 1.02 101.48 1.34C101.16 1.66 100.907 2.04 100.72 2.48C100.533 2.90667 100.44 3.36667 100.44 3.86ZM110.44 3.86C110.44 4.35333 110.533 4.82 110.72 5.26C110.907 5.68667 111.16 6.06667 111.48 6.4C111.8 6.72 112.173 6.97333 112.6 7.16C113.04 7.34667 113.507 7.44 114 7.44C114.493 7.44 114.953 7.34667 115.38 7.16C115.82 6.97333 116.2 6.72 116.52 6.4C116.853 6.06667 117.113 5.68667 117.3 5.26C117.487 4.82 117.58 4.35333 117.58 3.86C117.58 3.36667 117.487 2.90667 117.3 2.48C117.113 2.04 116.853 1.66 116.52 1.34C116.2 1.02 115.82 0.766666 115.38 0.579999C114.953 0.393333 114.493 0.299999 114 0.299999C113.507 0.299999 113.04 0.393333 112.6 0.579999C112.173 0.766666 111.8 1.02 111.48 1.34C111.16 1.66 110.907 2.04 110.72 2.48C110.533 2.90667 110.44 3.36667 110.44 3.86Z" fill="#CED4DA"/>
</svg>
