<svg width="24" height="24" viewBox="0 0 24 24" fill="none" xmlns="http://www.w3.org/2000/svg">
<path d="M23.253 2.91059C23.3931 3.05117 23.4718 3.24158 23.4718 3.44009C23.4718 3.6386 23.3931 3.82901 23.253 3.96959L21.6885 5.53559L18.6885 2.53559L20.253 0.96959C20.3936 0.828987 20.5844 0.75 20.7832 0.75C20.9821 0.75 21.1729 0.828987 21.3135 0.96959L23.253 2.90909V2.91059ZM20.628 6.59459L17.628 3.59459L7.4085 13.8156C7.32594 13.8981 7.26379 13.9988 7.227 14.1096L6.0195 17.7306C5.9976 17.7966 5.99449 17.8674 6.01052 17.9351C6.02655 18.0028 6.06108 18.0646 6.11026 18.1138C6.15944 18.163 6.22133 18.1975 6.28901 18.2136C6.35668 18.2296 6.42749 18.2265 6.4935 18.2046L10.1145 16.9971C10.2251 16.9607 10.3258 16.8991 10.4085 16.8171L20.628 6.59459Z" fill="white"/>
<path fill-rule="evenodd" clip-rule="evenodd" d="M1.5 20.2506C1.5 20.8473 1.73705 21.4196 2.15901 21.8416C2.58097 22.2635 3.15326 22.5006 3.75 22.5006H20.25C20.8467 22.5006 21.419 22.2635 21.841 21.8416C22.2629 21.4196 22.5 20.8473 22.5 20.2506V11.2506C22.5 11.0517 22.421 10.8609 22.2803 10.7203C22.1397 10.5796 21.9489 10.5006 21.75 10.5006C21.5511 10.5006 21.3603 10.5796 21.2197 10.7203C21.079 10.8609 21 11.0517 21 11.2506V20.2506C21 20.4495 20.921 20.6403 20.7803 20.7809C20.6397 20.9216 20.4489 21.0006 20.25 21.0006H3.75C3.55109 21.0006 3.36032 20.9216 3.21967 20.7809C3.07902 20.6403 3 20.4495 3 20.2506V3.75059C3 3.55168 3.07902 3.36091 3.21967 3.22026C3.36032 3.07961 3.55109 3.00059 3.75 3.00059H13.5C13.6989 3.00059 13.8897 2.92157 14.0303 2.78092C14.171 2.64027 14.25 2.4495 14.25 2.25059C14.25 2.05168 14.171 1.86091 14.0303 1.72026C13.8897 1.57961 13.6989 1.50059 13.5 1.50059H3.75C3.15326 1.50059 2.58097 1.73764 2.15901 2.1596C1.73705 2.58156 1.5 3.15385 1.5 3.75059V20.2506Z" fill="white"/>
</svg>
