<svg width="6" height="7" viewBox="0 0 6 7" fill="none" xmlns="http://www.w3.org/2000/svg">
<path fill-rule="evenodd" clip-rule="evenodd" d="M5.77026 5.16148C5.91728 5.3084 5.9999 5.50772 5.99997 5.71557C6.00003 5.92343 5.91752 6.12279 5.77059 6.26981C5.62366 6.41683 5.42434 6.49946 5.21649 6.49952C5.00864 6.49958 4.80927 6.41707 4.66226 6.27014L3.00026 4.60747L1.33759 6.27014C1.26498 6.34315 1.17866 6.40109 1.08358 6.44062C0.988509 6.48015 0.886557 6.50051 0.78359 6.50051C0.680623 6.50051 0.578671 6.48015 0.483596 6.44062C0.388522 6.40109 0.302198 6.34315 0.22959 6.27014C0.0825847 6.12312 0 5.92372 0 5.71581C0 5.5079 0.0825847 5.3085 0.22959 5.16148L1.89159 3.49947L0.22959 1.83747C0.0914265 1.6888 0.016303 1.49234 0.0200192 1.28942C0.0237354 1.08649 0.106002 0.892914 0.249516 0.7494C0.39303 0.605886 0.586607 0.52362 0.789533 0.519904C0.992458 0.516187 1.18892 0.591311 1.33759 0.729474L3.00026 2.39147L4.66226 0.729474C4.73501 0.656722 4.82138 0.599012 4.91643 0.559638C5.01149 0.520265 5.11337 0.5 5.21626 0.5C5.31914 0.5 5.42102 0.520265 5.51608 0.559638C5.61113 0.599012 5.6975 0.656722 5.77026 0.729474C5.84301 0.802226 5.90072 0.888596 5.94009 0.983652C5.97947 1.07871 5.99973 1.18059 5.99973 1.28347C5.99973 1.38636 5.97947 1.48824 5.94009 1.5833C5.90072 1.67835 5.84301 1.76472 5.77026 1.83747L4.10826 3.49947L5.77026 5.16148Z" fill="white"/>
</svg>
