<svg width="16" height="16" viewBox="0 0 16 16" fill="none" xmlns="http://www.w3.org/2000/svg">
<rect width="16" height="16" fill="white" fill-opacity="0.01"/>
<g clip-path="url(#clip0_369_30840)">
<rect width="14" height="14" transform="translate(1 1)" fill="white" fill-opacity="0.01"/>
<g clip-path="url(#clip1_369_30840)">
<path d="M12.6886 10.8305C14.177 9.50225 14.9995 7.99725 14.9995 7.99725C14.9995 7.99725 12.3745 3.18475 7.99951 3.18475C7.15916 3.18764 6.32831 3.36275 5.55826 3.69925L6.23201 4.37387C6.79852 4.16751 7.39659 4.06122 7.99951 4.05975C9.85451 4.05975 11.3936 5.08175 12.5215 6.20962C13.0643 6.75535 13.5509 7.35424 13.974 7.99725C13.9233 8.07337 13.8673 8.15738 13.8034 8.24925C13.5103 8.66925 13.0771 9.22925 12.5215 9.78488C12.3771 9.92925 12.2266 10.0719 12.0691 10.2101L12.6886 10.8305Z" fill="#6C757D"/>
<path d="M10.8844 9.02625C11.0796 8.48011 11.1158 7.88975 10.9887 7.32387C10.8615 6.75798 10.5763 6.23984 10.1662 5.82972C9.75605 5.4196 9.2379 5.13437 8.67202 5.00723C8.10613 4.88008 7.51577 4.91624 6.96964 5.1115L7.68976 5.83163C8.02603 5.78349 8.36889 5.81434 8.69117 5.92172C9.01345 6.0291 9.3063 6.21006 9.5465 6.45026C9.78671 6.69046 9.96767 6.98331 10.075 7.30559C10.1824 7.62787 10.2133 7.97073 10.1651 8.307L10.8844 9.02625ZM8.30926 10.1629L9.02851 10.8821C8.48237 11.0774 7.89202 11.1135 7.32613 10.9864C6.76024 10.8593 6.2421 10.574 5.83198 10.1639C5.42186 9.75379 5.13663 9.23564 5.00949 8.66976C4.88234 8.10387 4.9185 7.51351 5.11376 6.96737L5.83389 7.6875C5.78576 8.02377 5.8166 8.36663 5.92398 8.68891C6.03136 9.01119 6.21232 9.30404 6.45252 9.54424C6.69272 9.78444 6.98557 9.9654 7.30785 10.0728C7.63013 10.1802 7.97299 10.211 8.30926 10.1629Z" fill="#6C757D"/>
<path d="M3.93076 5.7835C3.77326 5.9235 3.62189 6.06525 3.47751 6.20962C2.9347 6.75535 2.44809 7.35424 2.02501 7.99725L2.19564 8.24925C2.48876 8.66925 2.92189 9.22925 3.47751 9.78488C4.60539 10.9128 6.14539 11.9347 7.99951 11.9347C8.62601 11.9347 9.21576 11.8184 9.76701 11.6198L10.4408 12.2952C9.67071 12.6317 8.83987 12.8068 7.99951 12.8097C3.62451 12.8097 0.999512 7.99725 0.999512 7.99725C0.999512 7.99725 1.82114 6.49138 3.31039 5.164L3.92989 5.78438L3.93076 5.7835ZM12.9398 13.557L2.43976 3.057L3.05926 2.4375L13.5593 12.9375L12.9398 13.557Z" fill="#6C757D"/>
</g>
</g>
<defs>
<clipPath id="clip0_369_30840">
<rect width="14" height="14" fill="white" transform="translate(1 1)"/>
</clipPath>
<clipPath id="clip1_369_30840">
<rect width="14" height="14" fill="white" transform="translate(1 1)"/>
</clipPath>
</defs>
</svg>
